# xmcd
# 
# Track frame offsets:
#     150
#     16855
#     31405
#     48281
#     61320
#     73385
#     87773
#     101375
#     117100
#     135763
#     151652
#     167268
# 
# Disc length: 2436
# 
# Revision: 3
# Processed by: cddbd v1.5.2PL0 Copyright (c) Steve Scherf et al.
# Submitted via: fre:ac v1.0.31
# 
DISCID=8309820c
DTITLE=Hank Williams, Jr. - Old School New Rules
DYEAR=2012
DGENRE=Country
TTITLE0=Takin' Back the Country
TTITLE1=I'm Gonna Get Drunk and Play Hank Williams (feat. Brad Paisley)
TTITLE2=Three Day Trip
TTITLE3=Old School
TTITLE4=We Don't Apologize for America
TTITLE5=You Win Again
TTITLE6=The Cow Turd Blues
TTITLE7=Who's Taking Care of Number One
TTITLE8=That Ain't Good
TTITLE9=Keep the Change
TTITLE10=Stock Market Blues
TTITLE11=I Think I'll Just Stay Here and Drink (feat. Merle Haggard)
EXTD=nick was here 10-13-2019
EXTT0=
EXTT1=
EXTT2=
EXTT3=
EXTT4=
EXTT5=
EXTT6=
EXTT7=
EXTT8=
EXTT9=
EXTT10=
EXTT11=
PLAYORDER=
